<svg width="131" height="19" viewBox="0 0 131 19" fill="none" xmlns="http://www.w3.org/2000/svg">
<path d="M15.192 18.36L10.152 13.344L12.168 11.328L17.184 16.344L15.192 18.36ZM9.096 18.36C7.368 18.36 5.876 17.984 4.62 17.232C3.372 16.48 2.408 15.428 1.728 14.076C1.056 12.724 0.72 11.152 0.72 9.36C0.72 7.568 1.056 5.996 1.728 4.644C2.408 3.292 3.372 2.24 4.62 1.488C5.876 0.736 7.368 0.36 9.096 0.36C10.824 0.36 12.312 0.736 13.56 1.488C14.816 2.24 15.78 3.292 16.452 4.644C17.132 5.996 17.472 7.568 17.472 9.36C17.472 11.152 17.132 12.724 16.452 14.076C15.78 15.428 14.816 16.48 13.56 17.232C12.312 17.984 10.824 18.36 9.096 18.36ZM9.096 15.288C10.192 15.304 11.104 15.068 11.832 14.58C12.56 14.092 13.104 13.4 13.464 12.504C13.832 11.608 14.016 10.56 14.016 9.36C14.016 8.16 13.832 7.12 13.464 6.24C13.104 5.36 12.56 4.676 11.832 4.188C11.104 3.7 10.192 3.448 9.096 3.432C8 3.416 7.088 3.652 6.36 4.14C5.632 4.628 5.084 5.32 4.716 6.216C4.356 7.112 4.176 8.16 4.176 9.36C4.176 10.56 4.356 11.6 4.716 12.48C5.084 13.36 5.632 14.044 6.36 14.532C7.088 15.02 8 15.272 9.096 15.288ZM26.8995 18.36C25.5075 18.36 24.2835 18.08 23.2275 17.52C22.1715 16.952 21.3475 16.156 20.7555 15.132C20.1635 14.108 19.8675 12.904 19.8675 11.52V0.743999L23.1795 0.719999V11.496C23.1795 12.064 23.2755 12.58 23.4675 13.044C23.6595 13.508 23.9235 13.908 24.2595 14.244C24.6035 14.58 24.9995 14.84 25.4475 15.024C25.9035 15.2 26.3875 15.288 26.8995 15.288C27.4275 15.288 27.9155 15.196 28.3635 15.012C28.8195 14.828 29.2155 14.568 29.5515 14.232C29.8875 13.896 30.1475 13.496 30.3315 13.032C30.5235 12.568 30.6195 12.056 30.6195 11.496V0.719999H33.9315V11.52C33.9315 12.904 33.6355 14.108 33.0435 15.132C32.4515 16.156 31.6275 16.952 30.5715 17.52C29.5155 18.08 28.2915 18.36 26.8995 18.36ZM37.5216 18V0.719999H40.7856V18H37.5216ZM51.7991 18.36C50.0711 18.36 48.5791 17.984 47.3231 17.232C46.0751 16.48 45.1111 15.428 44.4311 14.076C43.7591 12.724 43.4231 11.152 43.4231 9.36C43.4231 7.568 43.7591 5.996 44.4311 4.644C45.1111 3.292 46.0751 2.24 47.3231 1.488C48.5791 0.736 50.0711 0.36 51.7991 0.36C53.7831 0.36 55.4471 0.851999 56.7911 1.836C58.1431 2.82 59.0951 4.152 59.6471 5.832L56.3591 6.744C56.0391 5.696 55.4991 4.884 54.7391 4.308C53.9791 3.724 52.9991 3.432 51.7991 3.432C50.7031 3.432 49.7871 3.676 49.0511 4.164C48.3231 4.652 47.7751 5.34 47.4071 6.228C47.0391 7.116 46.8551 8.16 46.8551 9.36C46.8551 10.56 47.0391 11.604 47.4071 12.492C47.7751 13.38 48.3231 14.068 49.0511 14.556C49.7871 15.044 50.7031 15.288 51.7991 15.288C52.9991 15.288 53.9791 14.996 54.7391 14.412C55.4991 13.828 56.0391 13.016 56.3591 11.976L59.6471 12.888C59.0951 14.568 58.1431 15.9 56.7911 16.884C55.4471 17.868 53.7831 18.36 51.7991 18.36ZM62.2894 18V0.719999H65.5534V8.688L72.1294 0.719999H76.1134L68.8894 9.24L76.5694 18H72.4414L65.5534 10.128V18H62.2894ZM78.4903 18V0.719999H81.7543V14.952H89.1943V18H78.4903ZM91.4747 18V0.719999H94.7387V18H91.4747ZM98.3363 18V0.719999H101.648L109.16 12.24V0.719999H112.472V18H109.16L101.648 6.48V18H98.3363ZM115.821 18V0.719999H119.085V8.688L125.661 0.719999H129.645L122.421 9.24L130.101 18H125.973L119.085 10.128V18H115.821Z" fill="black"/>
</svg>
